/* XPM */
static char *c1c1c4c2ddcd4c46d75e056381c0fcf3KvcI1CwEsl1PS9D1[] = {
/* columns rows colors chars-per-pixel */
"15 25 189 2 ",
"   c #3F38A8",
".  c #3F36A9",
"X  c #423E95",
"o  c #4435B9",
"O  c #3F42B7",
"+  c #484AB9",
"@  c #4247BC",
"#  c #524EBD",
"$  c #6A5FBD",
"%  c #473DC2",
"&  c #5047C6",
"*  c #514AD6",
"=  c #685FC8",
"-  c #6571C5",
";  c #5856E5",
":  c #6259E6",
">  c #7B8CC2",
",  c #6F9FC3",
"<  c #6DAEE8",
"1  c #73ADEA",
"2  c #7CADE5",
"3  c #7BB5EB",
"4  c #7BB8EF",
"5  c #7DBAE6",
"6  c #6FAAF8",
"7  c #6CADF1",
"8  c #78A8F2",
"9  c #79B2F7",
"0  c #74B3FA",
"q  c #79B0FF",
"w  c #7BBDFD",
"e  c #7FBCF2",
"r  c #31D9C8",
"t  c #53C4CA",
"y  c #4FD8DE",
"u  c #61C7CC",
"i  c #6AC8D4",
"p  c #6DD8DC",
"a  c #73D9DE",
"s  c #46E7DF",
"d  c #48E5DC",
"f  c #6AE9DE",
"g  c #4BD9E5",
"h  c #59D6E3",
"j  c #5ADCE5",
"k  c #51DAE0",
"l  c #79D9E6",
"z  c #4EE7E4",
"x  c #57E0E8",
"c  c #5CE5ED",
"v  c #6CE4E5",
"b  c #7FEDE2",
"n  c #7CF0EF",
"m  c #6CEBF2",
"M  c #78E9F7",
"N  c #7DE2F4",
"B  c #61F5F7",
"V  c #61FFFC",
"C  c #6DF3F2",
"Z  c #70FFFB",
"A  c #8992BD",
"S  c #8E8DC9",
"D  c #8C9ACB",
"F  c #9E95CC",
"G  c #8F87D0",
"H  c #908FD5",
"J  c #8498D7",
"K  c #8E95DD",
"L  c #979DDB",
"P  c #87A7CD",
"I  c #86ABC8",
"U  c #90AACD",
"Y  c #9EB8CF",
"T  c #90B4CE",
"R  c #86AAD8",
"E  c #84BAD5",
"W  c #8EBDD7",
"Q  c #85B4D2",
"!  c #9BBCD3",
"~  c #94BCD9",
"^  c #9AB7D5",
"/  c #88B6C6",
"(  c #BEB2C7",
")  c #A9A7D7",
"_  c #A3B6D7",
"`  c #ADB8D8",
"'  c #A6B6DA",
"]  c #B5B8DA",
"[  c #968DE6",
"{  c #9492E9",
"}  c #9B96E6",
"|  c #9E9EF6",
" . c #A796FE",
".. c #A294F6",
"X. c #97A3E9",
"o. c #83B5E6",
"O. c #88BBE8",
"+. c #87BBE7",
"@. c #86B9F0",
"#. c #97A7F4",
"$. c #A0A3E6",
"%. c #B6BFE0",
"&. c #A2A3F3",
"*. c #C5BBDE",
"=. c #C0B7E6",
"-. c #C4BCE3",
";. c #C5BBED",
":. c #C8BEEE",
">. c #8DD5C9",
",. c #8ACCDC",
"<. c #93C8D9",
"1. c #84D4D3",
"2. c #8FD3D2",
"3. c #99DAD6",
"4. c #B2C3DD",
"5. c #A5C8CA",
"6. c #9EE7D4",
"7. c #9BE8D4",
"8. c #A1E0D8",
"9. c #AAE7DF",
"0. c #9ECEE2",
"q. c #8DD5E1",
"w. c #93DCEB",
"e. c #9AD6E8",
"r. c #94DBF1",
"t. c #9CDDF3",
"y. c #B7CBE6",
"u. c #B8C7E8",
"i. c #ACDAE7",
"p. c #B3D3E3",
"a. c #BADBEF",
"s. c #BAD4EA",
"d. c #ABC6F1",
"f. c #B7C8FC",
"g. c #A0DEF7",
"h. c #88E2EA",
"j. c #9DE6EF",
"k. c #96E5FF",
"l. c #98EDFF",
"z. c #9DE1F8",
"x. c #ADEDEF",
"c. c #AEE5EA",
"v. c #B6E3E5",
"b. c #A9FDEE",
"n. c #A9E2FF",
"m. c #A7E3F7",
"M. c #B6EDF2",
"N. c #A5FFF1",
"B. c #A2F1FF",
"V. c #AFFEFF",
"C. c #B6F3FC",
"Z. c #C9C0DF",
"A. c #CAC0E6",
"S. c #C5C2E9",
"D. c #CBC3EA",
"F. c #CFCAE8",
"G. c #C3CDE6",
"H. c #D1C4E0",
"J. c #C6D6EF",
"K. c #CCC5F5",
"L. c #C5C9FF",
"P. c #CDC3F8",
"I. c #D3C9FE",
"U. c #D0C6FA",
"Y. c #CFD1F8",
"T. c #CCDDF9",
"R. c #D7D3F6",
"E. c #D4D2FF",
"W. c #D8D9FF",
"Q. c #C5E8EC",
"!. c #CCE7F9",
"~. c #DEECF5",
"^. c #D5FFFF",
"/. c #DBFCFE",
"(. c #F5EBE8",
"). c #EEF5EC",
"_. c #F2F8EE",
"`. c #E9EDF0",
"'. c #F9EEF6",
"]. c #E5FFFF",
"[. c #ECFEFE",
"{. c #E9F6F6",
"}. c #F4F5F4",
"|. c #FAF6F3",
" X c #F4FCF5",
".X c #FCFEF5",
"XX c #FCF4FE",
"oX c #F4FEFE",
"OX c #FDFDFE",
/* pixels */
"r s g i {.(.OX] } [ F F.oX{.~.",
"d z g l [.OXOX%.X.&.) R.OXOXoX",
"y k x a ].OXoXy.J X.L W.OXOX|.",
"h h j p ].OXoX4.X.#.K E.OXOX.X",
"h j c p ].oXOX] $.| { E.OXOX.X",
"i u t i /.OXOX=.S H } L.[.[.[.",
"5.v.x.E - = $ G Y.G.u.U ~ Q I ",
"OXoX[.d.+ * o } OXoX[.! +.5 o.",
"|.OX[.f.@ * & [ XXXXOX' O.e 1 ",
"(.}.OXL.O ; % ..XXXXOX_ O.w 9 ",
"OXOXOXK.  : o  .XXOXoXY 3 w 0 ",
"XXXXOX=.X # . { [.[./.! o.@.2 ",
"*.-.A.) A D > R r.w.<./ ! ' ' ",
":.;.=.S.oXoX[.m.N M h.C.[.OXOX",
";.I.I.D.OX_.oXc.m B f b.].oX}.",
":.U.P.-.OX.XoX8.C V f N.[..X.X",
"A.D.P.D.OX{.[.6.f Z v V.[.OX X",
"H.Z.S.S.oX[./.7.b n l C.oXOXoX",
"( ( -.` p.M.9.>.1.1.,.<.s.J.p.",
"'.XXOXT.0.e.2.3.^.^.^.T U P , ",
"|.XXOX!.t.B.j.M.[.oXoX^ R @.3 ",
".XOXOX!.t.l.w.i.OXXXoX^ o.w 7 ",
"). XoX!.z.k.g.a.OXOXoX~ 4 w 6 ",
"oXoXoXQ.m.k.n.a.|.OX[.W < w q ",
"`.{.[.v.q.r.e.p.}.)./.E 1 0 8 "
};
